<?xml version="1.0" encoding="utf-8"?><svg viewBox="0 0 512 512" xmlns="http://www.w3.org/2000/svg" xmlns:xlink="http://www.w3.org/1999/xlink"><style>:root>svg{display:none}:root>svg:target{display:block}</style><svg viewBox="0 0 96.227 96.227" id="fb" xmlns="http://www.w3.org/2000/svg"><path d="M73.099 15.973l-9.058.004c-7.102 0-8.477 3.375-8.477 8.328v10.921h16.938l-.006 17.106H55.564v43.895H37.897V52.332h-14.77V35.226h14.77V22.612C37.897 7.972 46.84 0 59.9 0l13.2.021-.001 15.952z"/></svg><svg viewBox="0 -91 512 512" id="gp" xmlns="http://www.w3.org/2000/svg"><path d="M166 60c34.668 0 66.027 17.79 84 42.3l42.598-42.902C267.12 26.27 218.086 0 166 0 74.8 0 0 73.8 0 165s74.8 165 166 165c75.602 0 139.2-50.7 158.7-120 4.198-14.402 6.3-29.402 6.3-45v-15H181v59.988h79.5C244 245.391 207.7 270 166 270c-57.898 0-106-47.102-106-105S108.102 60 166 60zm300 30h-60v45h-45v60h45v45h60v-45h46v-60h-46zm0 0"/></svg><svg viewBox="0 0 512 512" id="inst" xmlns="http://www.w3.org/2000/svg"><path d="M261.04 512c-1.696 0-3.392 0-5.099-.008-40.132.098-77.214-.922-113.277-3.117-33.062-2.012-63.242-13.438-87.281-33.04-23.196-18.913-39.035-44.487-47.078-76.003-7-27.437-7.371-54.371-7.727-80.422C.32 300.72.055 278.57 0 256.047c.055-22.617.32-44.766.578-63.457.356-26.047.727-52.98 7.727-80.422 8.043-31.516 23.883-57.09 47.078-76.004 24.039-19.602 54.219-31.027 87.285-33.039C178.73.934 215.82-.09 256.039.008c40.145-.086 77.215.926 113.277 3.117 33.063 2.012 63.243 13.438 87.282 33.04 23.199 18.913 39.035 44.487 47.078 76.003 7 27.437 7.37 54.375 7.726 80.422.258 18.691.528 40.84.578 63.363v.094c-.05 22.523-.32 44.672-.578 63.363-.355 26.047-.722 52.98-7.726 80.422-8.043 31.516-23.88 57.09-47.078 76.004-24.04 19.602-54.22 31.027-87.282 33.039C334.781 510.977 299.305 512 261.04 512zm-5.099-40.008c39.48.094 75.73-.902 110.946-3.043 25-1.52 46.675-9.633 64.433-24.113 16.414-13.387 27.72-31.856 33.598-54.895 5.828-22.84 6.164-47.363 6.488-71.078.254-18.566.52-40.558.574-62.863-.054-22.309-.32-44.297-.574-62.863-.324-23.715-.66-48.239-6.488-71.082-5.879-23.04-17.184-41.508-33.598-54.895-17.758-14.476-39.433-22.59-64.433-24.11-35.215-2.144-71.465-3.132-110.852-3.046-39.473-.094-75.726.902-110.941 3.047-25 1.52-46.676 9.633-64.434 24.11-16.414 13.386-27.719 31.855-33.598 54.894-5.828 22.843-6.164 47.363-6.488 71.082-.254 18.582-.52 40.586-.574 62.91.055 22.226.32 44.234.574 62.816.324 23.715.66 48.239 6.488 71.078 5.88 23.04 17.184 41.508 33.598 54.895 17.758 14.476 39.434 22.59 64.434 24.11 35.215 2.144 71.476 3.144 110.847 3.046zM254.988 381c-68.922 0-125-56.074-125-125s56.078-125 125-125c68.926 0 125 56.074 125 125s-56.074 125-125 125zm0-210c-46.867 0-85 38.133-85 85s38.133 85 85 85c46.871 0 85-38.133 85-85s-38.129-85-85-85zm139-80c-16.566 0-30 13.43-30 30s13.434 30 30 30c16.57 0 30-13.43 30-30s-13.43-30-30-30zm0 0"/></svg><svg viewBox="0 0 480 480" id="pint" xmlns="http://www.w3.org/2000/svg"><path d="M240.35.008C107.612.008 0 107.605 0 240.31c0 98.431 59.168 182.967 143.867 220.133-.717-16.795-.157-36.918 4.145-55.17 4.646-19.522 30.957-130.976 30.957-130.976s-7.669-15.345-7.669-38.009c0-35.623 20.637-62.215 46.323-62.215 21.885 0 32.421 16.429 32.421 36.076 0 21.962-13.996 54.85-21.198 85.283-6.016 25.5 12.781 46.301 37.907 46.301 45.545 0 76.221-58.506 76.221-127.781 0-52.66-35.478-92.087-100.006-92.087-72.916 0-118.305 54.359-118.305 115.077 0 20.949 6.142 35.702 15.837 47.127 4.428 5.268 5.051 7.388 3.43 13.405-1.154 4.427-3.773 15.072-4.895 19.28-1.592 6.096-6.516 8.262-12.033 6.033-33.573-13.733-49.192-50.471-49.192-91.814 0-68.279 57.578-150.125 171.736-150.125 91.773 0 152.189 66.377 152.189 137.654 0 94.277-52.434 164.723-129.713 164.723-25.937 0-50.346-14.045-58.701-29.975 0 0-13.965 55.389-16.894 66.065-5.113 18.517-15.089 37.058-24.193 51.491a240.3 240.3 0 0068.116 9.85c132.736 0 240.316-107.595 240.316-240.348 0-132.703-107.58-240.3-240.316-240.3z"/></svg><svg viewBox="0 0 448 448" id="rss" xmlns="http://www.w3.org/2000/svg"><circle cx="64" cy="384" r="64"/><path d="M0 149.344v85.344c117.632 0 213.344 95.68 213.344 213.312h85.312c0-164.672-133.984-298.656-298.656-298.656z"/><path d="M0 0v85.344C200 85.344 362.688 248 362.688 448H448C448 200.96 247.04 0 0 0z"/></svg><svg viewBox="0 0 90 90" id="stmb" xmlns="http://www.w3.org/2000/svg"><path d="M54.104 39.426l7.508 3.166 9.185-3.166v-6.331c0-12.08-9.792-21.872-21.872-21.872s-21.872 9.792-21.872 21.872v31.081a5.18 5.18 0 11-10.36 0V50.362H0v14.39c0 12.08 9.792 21.872 21.872 21.872s21.872-9.792 21.872-21.872V33.095a5.18 5.18 0 1110.36 0v6.331z"/><path d="M81.156 50.938v13.813a5.18 5.18 0 01-10.361 0v-14.1l-9.185 3.166-7.508-3.166v14.102c0 12.08 9.793 21.872 21.872 21.872s21.872-9.792 21.872-21.872V50.938h-16.69z"/></svg><svg viewBox="0 0 97.637 97.637" id="tw" xmlns="http://www.w3.org/2000/svg"><path d="M97.523 18.526a.482.482 0 00-.568-.131 39.055 39.055 0 01-9.153 2.776 20.299 20.299 0 007.143-10.035.484.484 0 00-.709-.565 39.147 39.147 0 01-12.18 4.701 20.408 20.408 0 00-14.644-6.219c-11.204 0-20.318 9.114-20.318 20.317 0 1.355.131 2.697.391 4-15.518-.958-30.028-8.408-39.894-20.509a.484.484 0 00-.795.062 20.303 20.303 0 00-2.751 10.215 20.3 20.3 0 007.649 15.896 19.42 19.42 0 01-7.089-2.292.483.483 0 00-.721.413l-.002.26c0 8.946 5.895 16.801 14.282 19.409a19.514 19.514 0 01-6.754-.098.486.486 0 00-.553.623A20.314 20.314 0 0028.494 71.39c-6.785 4.971-14.805 7.59-23.279 7.59-1.561 0-3.133-.093-4.673-.274a.492.492 0 00-.514.317.485.485 0 00.195.572 56.693 56.693 0 0030.664 8.988c35.625 0 56.913-28.938 56.913-56.914 0-.779-.015-1.554-.046-2.327a40.519 40.519 0 009.802-10.235.486.486 0 00-.033-.581z"/></svg></svg>